<svg width="28" height="28" viewBox="0 0 28 28" fill="none" xmlns="http://www.w3.org/2000/svg">
<path d="M9.23989 15.7146C10.8849 15.7146 12.2032 17.0458 12.2032 18.7025V22.6796C12.2032 24.3246 10.8849 25.6663 9.23989 25.6663H5.29656C3.66322 25.6663 2.33322 24.3246 2.33322 22.6796V18.7025C2.33322 17.0458 3.66322 15.7146 5.29656 15.7146H9.23989ZM22.7033 15.7146C24.3367 15.7146 25.6667 17.0458 25.6667 18.7025V22.6796C25.6667 24.3246 24.3367 25.6663 22.7033 25.6663H18.76C17.115 25.6663 15.7967 24.3246 15.7967 22.6796V18.7025C15.7967 17.0458 17.115 15.7146 18.76 15.7146H22.7033ZM9.23989 2.33333C10.8849 2.33333 12.2032 3.675 12.2032 5.32116V9.29833C12.2032 10.955 10.8849 12.285 9.23989 12.285H5.29656C3.66322 12.285 2.33322 10.955 2.33322 9.29833V5.32116C2.33322 3.675 3.66322 2.33333 5.29656 2.33333H9.23989ZM22.7033 2.33333C24.3367 2.33333 25.6667 3.675 25.6667 5.32116V9.29833C25.6667 10.955 24.3367 12.285 22.7033 12.285H18.76C17.115 12.285 15.7967 10.955 15.7967 9.29833V5.32116C15.7967 3.675 17.115 2.33333 18.76 2.33333H22.7033Z" fill="#246BFD"/>
</svg>
