<svg width="28" height="28" viewBox="0 0 28 28" fill="none" xmlns="http://www.w3.org/2000/svg">
<path d="M17.5816 2.33344C20.7432 2.33344 23.2982 3.58177 23.3332 6.7551V24.4651C23.3332 24.6634 23.2866 24.8618 23.1932 25.0368C23.0416 25.3168 22.7849 25.5268 22.4699 25.6201C22.1666 25.7134 21.8282 25.6668 21.5482 25.5034L13.9882 21.7234L6.41657 25.5034C6.24273 25.5956 6.04323 25.6551 5.8449 25.6551C5.19156 25.6551 4.66656 25.1184 4.66656 24.4651V6.7551C4.66656 3.58177 7.23323 2.33344 10.3832 2.33344H17.5816ZM18.3749 9.3801H9.5899C9.08823 9.3801 8.6799 9.78844 8.6799 10.3018C8.6799 10.8139 9.08823 11.2234 9.5899 11.2234H18.3749C18.8766 11.2234 19.2849 10.8139 19.2849 10.3018C19.2849 9.78844 18.8766 9.3801 18.3749 9.3801Z" fill="#246BFD"/>
</svg>
