<svg width="28" height="28" viewBox="0 0 28 28" fill="none" xmlns="http://www.w3.org/2000/svg">
<path d="M14.0233 2.33333C20.65 2.33333 25.6667 7.76648 25.6667 13.9825C25.6667 21.1916 19.7867 25.6667 14 25.6667C12.0867 25.6667 9.96333 25.1526 8.25999 24.1477C7.66499 23.7855 7.16333 23.5168 6.52166 23.7271L4.16499 24.4281C3.56999 24.6151 3.03333 24.1477 3.20833 23.5168L3.98999 20.8995C4.11833 20.5373 4.09499 20.1517 3.90833 19.8479C2.90499 18.0018 2.33333 15.9805 2.33333 14.0175C2.33333 7.87163 7.245 2.33333 14.0233 2.33333ZM19.355 12.5336C18.5267 12.5336 17.8617 13.1996 17.8617 14.0292C17.8617 14.8471 18.5267 15.5248 19.355 15.5248C20.1833 15.5248 20.8483 14.8471 20.8483 14.0292C20.8483 13.1996 20.1833 12.5336 19.355 12.5336ZM13.9767 12.5336C13.16 12.5219 12.4833 13.1996 12.4833 14.0175C12.4833 14.8471 13.1483 15.5131 13.9767 15.5248C14.805 15.5248 15.47 14.8471 15.47 14.0292C15.47 13.1996 14.805 12.5336 13.9767 12.5336ZM8.59833 12.5336C7.76999 12.5336 7.10499 13.1996 7.10499 14.0292C7.10499 14.8471 7.78166 15.5248 8.59833 15.5248C9.42666 15.5131 10.0917 14.8471 10.0917 14.0292C10.0917 13.1996 9.42666 12.5336 8.59833 12.5336Z" fill="#246BFD"/>
</svg>
