<svg width="20" height="24" viewBox="0 0 20 24" fill="none" xmlns="http://www.w3.org/2000/svg">
<path d="M7.62363 20.4326C8.20686 20.3092 11.7607 20.3092 12.344 20.4326C12.8426 20.5477 13.3817 20.8168 13.3817 21.4043C13.3527 21.9636 13.0246 22.4595 12.5712 22.7744C11.9834 23.2326 11.2935 23.5229 10.5723 23.6275C10.1734 23.6792 9.78147 23.6803 9.39651 23.6275C8.67414 23.5229 7.98424 23.2326 7.39753 22.7732C6.943 22.4595 6.61486 21.9636 6.58587 21.4043C6.58587 20.8168 7.12504 20.5477 7.62363 20.4326ZM10.0527 0.333336C12.4795 0.333336 14.9585 1.48486 16.4311 3.39544C17.3865 4.62569 17.8248 5.85477 17.8248 7.76535V8.26239C17.8248 9.72764 18.2121 10.5913 19.0644 11.5865C19.7102 12.3197 19.9166 13.2609 19.9166 14.282C19.9166 15.3019 19.5815 16.2702 18.9101 17.0563C18.0312 17.9986 16.7917 18.6002 15.5267 18.7048C13.6935 18.8611 11.8592 18.9927 10.0005 18.9927C8.14065 18.9927 6.30748 18.914 4.4743 18.7048C3.20812 18.6002 1.96861 17.9986 1.09086 17.0563C0.419508 16.2702 0.083252 15.3019 0.083252 14.282C0.083252 13.2609 0.290803 12.3197 0.935488 11.5865C1.81439 10.5913 2.17616 9.72764 2.17616 8.26239V7.76535C2.17616 5.80307 2.66547 4.51994 3.67308 3.26384C5.17116 1.43198 7.5725 0.333336 9.94832 0.333336H10.0527Z" fill="#121212"/>
</svg>
