<svg width="28" height="28" viewBox="0 0 28 28" fill="none" xmlns="http://www.w3.org/2000/svg">
<path d="M8.66403 22.0592C9.63161 22.0592 10.4243 22.8688 10.4243 23.8689C10.4243 24.8571 9.63161 25.6667 8.66403 25.6667C7.68479 25.6667 6.89208 24.8571 6.89208 23.8689C6.89208 22.8688 7.68479 22.0592 8.66403 22.0592ZM21.7788 22.0592C22.7464 22.0592 23.5391 22.8688 23.5391 23.8689C23.5391 24.8571 22.7464 25.6667 21.7788 25.6667C20.7996 25.6667 20.0069 24.8571 20.0069 23.8689C20.0069 22.8688 20.7996 22.0592 21.7788 22.0592ZM3.24126 2.33347L3.36006 2.34352L6.1404 2.77095C6.53676 2.84357 6.82819 3.17575 6.86317 3.58055L7.08466 6.24748C7.11963 6.62966 7.42273 6.9154 7.79577 6.9154H23.5393C24.2504 6.9154 24.7168 7.16543 25.1831 7.7131C25.6494 8.26077 25.731 9.04657 25.626 9.75973L24.5186 17.57C24.3087 19.0714 23.0497 20.1774 21.5692 20.1774H8.85078C7.30033 20.1774 6.01799 18.9642 5.88976 17.3926L4.81726 4.41397L3.05697 4.10441C2.59066 4.02107 2.26425 3.55674 2.34585 3.0805C2.42746 2.59355 2.8821 2.2709 3.36006 2.34352L3.24126 2.33347ZM19.704 11.3194H16.4748C15.9852 11.3194 15.6005 11.7123 15.6005 12.2124C15.6005 12.7005 15.9852 13.1053 16.4748 13.1053H19.704C20.1936 13.1053 20.5783 12.7005 20.5783 12.2124C20.5783 11.7123 20.1936 11.3194 19.704 11.3194Z" fill="#246BFD"/>
</svg>
